<svg width="25" height="24" viewBox="0 0 25 24" fill="none" xmlns="http://www.w3.org/2000/svg">
<path d="M19.6667 19V20C19.6667 20.5304 19.456 21.0391 19.081 21.4142C18.7059 21.7893 18.1972 22 17.6667 22H7.66675C7.13632 22 6.62761 21.7893 6.25253 21.4142C5.87746 21.0391 5.66675 20.5304 5.66675 20L5.66675 4C5.66675 3.46957 5.87746 2.96086 6.25253 2.58579C6.62761 2.21071 7.13632 2 7.66675 2H17.6667C18.1972 2 18.7059 2.21071 19.081 2.58579C19.456 2.96086 19.6667 3.46957 19.6667 4V19Z" stroke="white" stroke-width="2" stroke-linecap="round" stroke-linejoin="round"/>
<path d="M14.6667 18C14.6667 19.1046 13.7713 20 12.6667 20C11.5622 20 10.6667 19.1046 10.6667 18C10.6667 16.8954 11.5622 16 12.6667 16C13.7713 16 14.6667 16.8954 14.6667 18Z" stroke="white"/>
</svg>
