<svg width="24" height="24" viewBox="0 0 24 24" fill="none" xmlns="http://www.w3.org/2000/svg">
<path fill-rule="evenodd" clip-rule="evenodd" d="M12 24C5.37258 24 0 18.6274 0 12C0 5.37258 5.37258 0 12 0C18.6274 0 24 5.37258 24 12C24 18.6274 18.6274 24 12 24ZM9.65382 14.1346C9.97442 14.4808 10.3922 14.6538 10.9071 14.6538C11.2762 14.6538 11.6308 14.5817 11.9709 14.4375C12.3206 14.2933 12.6218 14.0721 12.8744 13.774C12.9437 13.6927 13.0072 13.6057 13.065 13.513C13.0845 13.5851 13.1084 13.6529 13.1367 13.7163C13.2824 14.0433 13.4864 14.2837 13.7487 14.4375C14.0207 14.5913 14.2879 14.6683 14.5502 14.6683C14.9777 14.6683 15.376 14.5817 15.7451 14.4087C16.1143 14.226 16.4398 13.9808 16.7215 13.6731C17.0032 13.3558 17.2218 12.9856 17.3773 12.5625C17.5424 12.1298 17.625 11.6538 17.625 11.1346C17.625 10.4231 17.4938 9.77885 17.2315 9.20192C16.9692 8.625 16.6049 8.125 16.1386 7.70192C15.682 7.27885 15.1331 6.95192 14.4919 6.72115C13.8507 6.49038 13.1512 6.375 12.3935 6.375C11.5191 6.375 10.7128 6.52885 9.97442 6.83654C9.24579 7.13462 8.60946 7.55289 8.06541 8.09135C7.53109 8.62981 7.11334 9.25481 6.81218 9.96635C6.52073 10.6779 6.375 11.4423 6.375 12.2596C6.375 13.0096 6.51101 13.7115 6.78303 14.3654C7.06477 15.0192 7.45823 15.5865 7.96341 16.0673C8.4783 16.5577 9.09521 16.9375 9.81412 17.2067C10.533 17.4856 11.3394 17.625 12.2332 17.625C12.8258 17.625 13.3892 17.5625 13.9236 17.4375C14.4579 17.3221 14.9874 17.1587 15.512 16.9471L15.0894 16.024C14.6522 16.1875 14.1907 16.3077 13.705 16.3846C13.229 16.4712 12.7675 16.5144 12.3206 16.5144C11.2714 16.5144 10.3922 16.3221 9.68297 15.9375C8.98348 15.5529 8.45887 15.0433 8.10913 14.4087C7.75939 13.774 7.58452 13.0625 7.58452 12.274C7.58452 11.5913 7.7011 10.9615 7.93426 10.3846C8.16742 9.80769 8.49773 9.30288 8.92519 8.87019C9.35266 8.4375 9.86269 8.10096 10.4553 7.86058C11.0479 7.61058 11.6988 7.48558 12.408 7.48558C13.2047 7.48558 13.9041 7.63462 14.5065 7.93269C15.1088 8.23077 15.58 8.65865 15.92 9.21635C16.26 9.77404 16.43 10.4327 16.43 11.1923C16.43 11.375 16.4058 11.601 16.3572 11.8702C16.3086 12.1394 16.226 12.4087 16.1095 12.6779C15.9929 12.9375 15.8326 13.1587 15.6286 13.3413C15.4343 13.5144 15.1914 13.601 14.8999 13.601C14.5988 13.601 14.3899 13.5096 14.2733 13.3269C14.1567 13.1442 14.1276 12.8942 14.1859 12.5769L14.7688 9.21635H13.8653L13.6674 9.69119C13.2781 9.38424 12.8437 9.23077 12.3643 9.23077C11.9466 9.23077 11.5434 9.32692 11.1548 9.51923C10.7759 9.70192 10.4359 9.95673 10.1347 10.2837C9.84326 10.601 9.6101 10.9712 9.43523 11.3942C9.26036 11.8077 9.17293 12.2452 9.17293 12.7067C9.17293 13.3125 9.33323 13.7885 9.65382 14.1346ZM13.2964 10.9003C13.1762 10.6772 13.0404 10.5005 12.8889 10.3702C12.6752 10.1779 12.4226 10.0817 12.1312 10.0817C11.8203 10.0817 11.5434 10.1875 11.3005 10.399C11.0576 10.601 10.8682 10.8798 10.7322 11.2356C10.5962 11.5817 10.5282 11.9712 10.5282 12.4038C10.5282 12.7788 10.6059 13.0721 10.7613 13.2837C10.9265 13.4952 11.1791 13.601 11.5191 13.601C11.6745 13.601 11.8494 13.5721 12.0437 13.5144C12.2477 13.4567 12.4517 13.351 12.6558 13.1971C12.7829 13.1013 12.8987 12.9793 13.0032 12.8311C13.0094 12.693 13.0247 12.5457 13.0492 12.3894L13.2964 10.9003Z" fill="white"/>
</svg>
