<svg width="67" height="44" viewBox="0 0 67 44" fill="none" xmlns="http://www.w3.org/2000/svg">
<rect x="0.5" y="0.5" width="65.88" height="43" rx="7.5" fill="white"/>
<rect x="0.5" y="0.5" width="65.88" height="43" rx="7.5" stroke="#CCCCCC"/>
<path d="M45.2814 14.4286C44.4577 14.1061 43.1512 13.75 41.5357 13.75C37.4116 13.75 34.5074 15.9203 34.4896 19.0231C34.4553 21.3123 36.5689 22.5838 38.1496 23.3471C39.7654 24.1271 40.3146 24.6362 40.3146 25.3315C40.2981 26.3992 39.009 26.8914 37.8066 26.8914C36.1393 26.8914 35.2459 26.6377 33.8883 26.0436L33.3384 25.789L32.754 29.3668C33.7334 29.8072 35.538 30.198 37.4116 30.2151C41.7935 30.2151 44.6463 28.0784 44.6801 24.7719C44.6968 22.9575 43.5807 21.5672 41.1746 20.4311C39.714 19.7019 38.8194 19.2101 38.8194 18.4639C38.8366 17.7856 39.576 17.0908 41.2249 17.0908C42.5825 17.0568 43.58 17.3788 44.3357 17.7011L44.7134 17.8703L45.2814 14.4286Z" fill="#3362AB"/>
<path d="M30.1423 29.9776H25.9662L28.5782 14.0389H32.7542L30.1423 29.9776Z" fill="#3362AB"/>
<path fill-rule="evenodd" clip-rule="evenodd" d="M55.9868 14.0389H52.7565C51.7604 14.0389 51.0036 14.3269 50.5738 15.3614L44.3706 29.9773H48.7526C48.7526 29.9773 49.474 28.0101 49.629 27.5864H54.9909C55.1108 28.146 55.4892 29.9773 55.4892 29.9773H59.3559L55.9868 14.0389ZM50.8319 24.3311C51.1758 23.4154 52.4992 19.8716 52.4992 19.8716C52.4922 19.8852 52.546 19.738 52.6263 19.5184L52.6273 19.5157L52.6279 19.514C52.7478 19.186 52.9257 18.6993 53.0486 18.3456L53.3405 19.719C53.3405 19.719 54.1313 23.5342 54.303 24.3311H50.8319Z" fill="#3362AB"/>
<path d="M22.4781 14.0389L18.3882 24.9076L17.9413 22.7033L17.9409 22.7019L16.4806 15.3787C16.2402 14.3607 15.5012 14.0725 14.5904 14.0389H7.87135L7.80261 14.361C9.44137 14.7745 10.9071 15.3704 12.1914 16.1114L15.9136 29.9607H20.3298L26.894 14.0389H22.4781Z" fill="#3362AB"/>
</svg>
